<?xml version="1.0" encoding="UTF-8" standalone="no"?>
<!DOCTYPE svg PUBLIC "-//W3C//DTD SVG 1.1//EN"
 "http://www.w3.org/Graphics/SVG/1.1/DTD/svg11.dtd">
<!-- Generated by graphviz version 2.38.0 (20140413.2041)
 -->
<!-- Title: controllers_diagram Pages: 1 -->
<svg width="822pt" height="952pt"
 viewBox="0.00 0.00 822.00 952.00" xmlns="http://www.w3.org/2000/svg" xmlns:xlink="http://www.w3.org/1999/xlink">
<g id="graph0" class="graph" transform="scale(1 1) rotate(0) translate(403 530)">
<title>controllers_diagram</title>
<polygon fill="none" stroke="none" points="-403,422 -403,-530 419,-530 419,422 -403,422"/>
<!-- _diagram_info -->
<g id="node1" class="node"><title>_diagram_info</title>
<text text-anchor="start" x="8" y="202.4" font-family="Times,serif" font-size="13.00">Controllers diagram</text>
<text text-anchor="start" x="8" y="216.4" font-family="Times,serif" font-size="13.00">Date: Apr 10 2017 &#45; 20:45</text>
<text text-anchor="start" x="8" y="230.4" font-family="Times,serif" font-size="13.00">Migration version: 20170410155645</text>
<text text-anchor="start" x="8" y="244.4" font-family="Times,serif" font-size="13.00">Generated by RailRoady 1.5.2</text>
<text text-anchor="start" x="8" y="258.4" font-family="Times,serif" font-size="13.00">http://railroady.prestonlee.com</text>
</g>
<!-- PagesController -->
<g id="node2" class="node"><title>PagesController</title>
<path fill="none" stroke="black" d="M-121,341.5C-121,341.5 -41,341.5 -41,341.5 -35,341.5 -29,335.5 -29,329.5 -29,329.5 -29,200.5 -29,200.5 -29,194.5 -35,188.5 -41,188.5 -41,188.5 -121,188.5 -121,188.5 -127,188.5 -133,194.5 -133,200.5 -133,200.5 -133,329.5 -133,329.5 -133,335.5 -127,341.5 -121,341.5"/>
<text text-anchor="middle" x="-81" y="203.7" font-family="Times,serif" font-size="14.00">PagesController</text>
<polyline fill="none" stroke="black" points="-133,211.5 -29,211.5 "/>
<text text-anchor="start" x="-125" y="226.7" font-family="Times,serif" font-size="14.00">about</text>
<text text-anchor="start" x="-125" y="241.7" font-family="Times,serif" font-size="14.00">help</text>
<text text-anchor="start" x="-125" y="256.7" font-family="Times,serif" font-size="14.00">home</text>
<text text-anchor="start" x="-125" y="271.7" font-family="Times,serif" font-size="14.00">search</text>
<text text-anchor="start" x="-125" y="286.7" font-family="Times,serif" font-size="14.00">statistics</text>
<polyline fill="none" stroke="black" points="-133,294.5 -29,294.5 "/>
<polyline fill="none" stroke="black" points="-133,318.5 -29,318.5 "/>
<text text-anchor="start" x="-125" y="333.7" font-family="Times,serif" font-size="14.00">_layout</text>
</g>
<!-- AdminController -->
<g id="node3" class="node"><title>AdminController</title>
<path fill="none" stroke="black" d="M-330,-342.5C-330,-342.5 -244,-342.5 -244,-342.5 -238,-342.5 -232,-348.5 -232,-354.5 -232,-354.5 -232,-513.5 -232,-513.5 -232,-519.5 -238,-525.5 -244,-525.5 -244,-525.5 -330,-525.5 -330,-525.5 -336,-525.5 -342,-519.5 -342,-513.5 -342,-513.5 -342,-354.5 -342,-354.5 -342,-348.5 -336,-342.5 -330,-342.5"/>
<text text-anchor="middle" x="-287" y="-510.3" font-family="Times,serif" font-size="14.00">AdminController</text>
<polyline fill="none" stroke="black" points="-342,-502.5 -232,-502.5 "/>
<text text-anchor="start" x="-334" y="-487.3" font-family="Times,serif" font-size="14.00">articles</text>
<text text-anchor="start" x="-334" y="-472.3" font-family="Times,serif" font-size="14.00">categories</text>
<text text-anchor="start" x="-334" y="-457.3" font-family="Times,serif" font-size="14.00">comments</text>
<text text-anchor="start" x="-334" y="-442.3" font-family="Times,serif" font-size="14.00">main</text>
<text text-anchor="start" x="-334" y="-427.3" font-family="Times,serif" font-size="14.00">menus</text>
<text text-anchor="start" x="-334" y="-412.3" font-family="Times,serif" font-size="14.00">tags</text>
<text text-anchor="start" x="-334" y="-397.3" font-family="Times,serif" font-size="14.00">users</text>
<polyline fill="none" stroke="black" points="-342,-389.5 -232,-389.5 "/>
<polyline fill="none" stroke="black" points="-342,-365.5 -232,-365.5 "/>
<text text-anchor="start" x="-334" y="-350.3" font-family="Times,serif" font-size="14.00">_layout</text>
</g>
<!-- TagsController -->
<g id="node4" class="node"><title>TagsController</title>
<path fill="none" stroke="black" d="M316,-228.5C316,-228.5 390,-228.5 390,-228.5 396,-228.5 402,-234.5 402,-240.5 402,-240.5 402,-429.5 402,-429.5 402,-435.5 396,-441.5 390,-441.5 390,-441.5 316,-441.5 316,-441.5 310,-441.5 304,-435.5 304,-429.5 304,-429.5 304,-240.5 304,-240.5 304,-234.5 310,-228.5 316,-228.5"/>
<text text-anchor="middle" x="353" y="-426.3" font-family="Times,serif" font-size="14.00">TagsController</text>
<polyline fill="none" stroke="black" points="304,-418.5 402,-418.5 "/>
<text text-anchor="start" x="312" y="-403.3" font-family="Times,serif" font-size="14.00">create</text>
<text text-anchor="start" x="312" y="-388.3" font-family="Times,serif" font-size="14.00">destroy</text>
<text text-anchor="start" x="312" y="-373.3" font-family="Times,serif" font-size="14.00">edit</text>
<text text-anchor="start" x="312" y="-358.3" font-family="Times,serif" font-size="14.00">index</text>
<text text-anchor="start" x="312" y="-343.3" font-family="Times,serif" font-size="14.00">new</text>
<text text-anchor="start" x="312" y="-328.3" font-family="Times,serif" font-size="14.00">show</text>
<text text-anchor="start" x="312" y="-313.3" font-family="Times,serif" font-size="14.00">update</text>
<polyline fill="none" stroke="black" points="304,-305.5 402,-305.5 "/>
<polyline fill="none" stroke="black" points="304,-281.5 402,-281.5 "/>
<text text-anchor="start" x="312" y="-266.3" font-family="Times,serif" font-size="14.00">_layout</text>
<text text-anchor="start" x="312" y="-251.3" font-family="Times,serif" font-size="14.00">set_tag</text>
<text text-anchor="start" x="312" y="-236.3" font-family="Times,serif" font-size="14.00">tag_params</text>
</g>
<!-- EventGuestsController -->
<g id="node5" class="node"><title>EventGuestsController</title>
<path fill="none" stroke="black" d="M126,113.5C126,113.5 242,113.5 242,113.5 248,113.5 254,107.5 254,101.5 254,101.5 254,-87.5 254,-87.5 254,-93.5 248,-99.5 242,-99.5 242,-99.5 126,-99.5 126,-99.5 120,-99.5 114,-93.5 114,-87.5 114,-87.5 114,101.5 114,101.5 114,107.5 120,113.5 126,113.5"/>
<text text-anchor="middle" x="184" y="-84.3" font-family="Times,serif" font-size="14.00">EventGuestsController</text>
<polyline fill="none" stroke="black" points="114,-76.5 254,-76.5 "/>
<text text-anchor="start" x="122" y="-61.3" font-family="Times,serif" font-size="14.00">create</text>
<text text-anchor="start" x="122" y="-46.3" font-family="Times,serif" font-size="14.00">destroy</text>
<text text-anchor="start" x="122" y="-31.3" font-family="Times,serif" font-size="14.00">edit</text>
<text text-anchor="start" x="122" y="-16.3" font-family="Times,serif" font-size="14.00">index</text>
<text text-anchor="start" x="122" y="-1.3" font-family="Times,serif" font-size="14.00">new</text>
<text text-anchor="start" x="122" y="13.7" font-family="Times,serif" font-size="14.00">show</text>
<text text-anchor="start" x="122" y="28.7" font-family="Times,serif" font-size="14.00">update</text>
<polyline fill="none" stroke="black" points="114,36.5 254,36.5 "/>
<polyline fill="none" stroke="black" points="114,60.5 254,60.5 "/>
<text text-anchor="start" x="122" y="75.7" font-family="Times,serif" font-size="14.00">_layout</text>
<text text-anchor="start" x="122" y="90.7" font-family="Times,serif" font-size="14.00">event_guest_params</text>
<text text-anchor="start" x="122" y="105.7" font-family="Times,serif" font-size="14.00">set_event_guest</text>
</g>
<!-- TagRefsController -->
<g id="node6" class="node"><title>TagRefsController</title>
<path fill="none" stroke="black" d="M-216,56.5C-216,56.5 -122,56.5 -122,56.5 -116,56.5 -110,50.5 -110,44.5 -110,44.5 -110,-144.5 -110,-144.5 -110,-150.5 -116,-156.5 -122,-156.5 -122,-156.5 -216,-156.5 -216,-156.5 -222,-156.5 -228,-150.5 -228,-144.5 -228,-144.5 -228,44.5 -228,44.5 -228,50.5 -222,56.5 -216,56.5"/>
<text text-anchor="middle" x="-169" y="-141.3" font-family="Times,serif" font-size="14.00">TagRefsController</text>
<polyline fill="none" stroke="black" points="-228,-133.5 -110,-133.5 "/>
<text text-anchor="start" x="-220" y="-118.3" font-family="Times,serif" font-size="14.00">create</text>
<text text-anchor="start" x="-220" y="-103.3" font-family="Times,serif" font-size="14.00">destroy</text>
<text text-anchor="start" x="-220" y="-88.3" font-family="Times,serif" font-size="14.00">edit</text>
<text text-anchor="start" x="-220" y="-73.3" font-family="Times,serif" font-size="14.00">index</text>
<text text-anchor="start" x="-220" y="-58.3" font-family="Times,serif" font-size="14.00">new</text>
<text text-anchor="start" x="-220" y="-43.3" font-family="Times,serif" font-size="14.00">show</text>
<text text-anchor="start" x="-220" y="-28.3" font-family="Times,serif" font-size="14.00">update</text>
<polyline fill="none" stroke="black" points="-228,-20.5 -110,-20.5 "/>
<polyline fill="none" stroke="black" points="-228,3.5 -110,3.5 "/>
<text text-anchor="start" x="-220" y="18.7" font-family="Times,serif" font-size="14.00">_layout</text>
<text text-anchor="start" x="-220" y="33.7" font-family="Times,serif" font-size="14.00">set_tag_ref</text>
<text text-anchor="start" x="-220" y="48.7" font-family="Times,serif" font-size="14.00">tag_ref_params</text>
</g>
<!-- BookmarksController -->
<g id="node7" class="node"><title>BookmarksController</title>
<path fill="none" stroke="black" d="M145.5,-133.5C145.5,-133.5 256.5,-133.5 256.5,-133.5 262.5,-133.5 268.5,-139.5 268.5,-145.5 268.5,-145.5 268.5,-364.5 268.5,-364.5 268.5,-370.5 262.5,-376.5 256.5,-376.5 256.5,-376.5 145.5,-376.5 145.5,-376.5 139.5,-376.5 133.5,-370.5 133.5,-364.5 133.5,-364.5 133.5,-145.5 133.5,-145.5 133.5,-139.5 139.5,-133.5 145.5,-133.5"/>
<text text-anchor="middle" x="201" y="-361.3" font-family="Times,serif" font-size="14.00">BookmarksController</text>
<polyline fill="none" stroke="black" points="133.5,-353.5 268.5,-353.5 "/>
<text text-anchor="start" x="141.5" y="-338.3" font-family="Times,serif" font-size="14.00">create</text>
<text text-anchor="start" x="141.5" y="-323.3" font-family="Times,serif" font-size="14.00">destroy</text>
<text text-anchor="start" x="141.5" y="-308.3" font-family="Times,serif" font-size="14.00">edit</text>
<text text-anchor="start" x="141.5" y="-293.3" font-family="Times,serif" font-size="14.00">index</text>
<text text-anchor="start" x="141.5" y="-278.3" font-family="Times,serif" font-size="14.00">new</text>
<text text-anchor="start" x="141.5" y="-263.3" font-family="Times,serif" font-size="14.00">sethomepage</text>
<text text-anchor="start" x="141.5" y="-248.3" font-family="Times,serif" font-size="14.00">setnavbar</text>
<text text-anchor="start" x="141.5" y="-233.3" font-family="Times,serif" font-size="14.00">show</text>
<text text-anchor="start" x="141.5" y="-218.3" font-family="Times,serif" font-size="14.00">update</text>
<polyline fill="none" stroke="black" points="133.5,-210.5 268.5,-210.5 "/>
<polyline fill="none" stroke="black" points="133.5,-186.5 268.5,-186.5 "/>
<text text-anchor="start" x="141.5" y="-171.3" font-family="Times,serif" font-size="14.00">_layout</text>
<text text-anchor="start" x="141.5" y="-156.3" font-family="Times,serif" font-size="14.00">bookmark_params</text>
<text text-anchor="start" x="141.5" y="-141.3" font-family="Times,serif" font-size="14.00">set_bookmark</text>
</g>
<!-- RegistrationsController -->
<g id="node8" class="node"><title>RegistrationsController</title>
<path fill="none" stroke="black" d="M-368,-190.5C-368,-190.5 -244,-190.5 -244,-190.5 -238,-190.5 -232,-196.5 -232,-202.5 -232,-202.5 -232,-301.5 -232,-301.5 -232,-307.5 -238,-313.5 -244,-313.5 -244,-313.5 -368,-313.5 -368,-313.5 -374,-313.5 -380,-307.5 -380,-301.5 -380,-301.5 -380,-202.5 -380,-202.5 -380,-196.5 -374,-190.5 -368,-190.5"/>
<text text-anchor="middle" x="-306" y="-298.3" font-family="Times,serif" font-size="14.00">RegistrationsController</text>
<polyline fill="none" stroke="black" points="-380,-290.5 -232,-290.5 "/>
<text text-anchor="start" x="-372" y="-275.3" font-family="Times,serif" font-size="14.00">create</text>
<polyline fill="none" stroke="black" points="-380,-267.5 -232,-267.5 "/>
<polyline fill="none" stroke="black" points="-380,-243.5 -232,-243.5 "/>
<text text-anchor="start" x="-372" y="-228.3" font-family="Times,serif" font-size="14.00">_layout</text>
<text text-anchor="start" x="-372" y="-213.3" font-family="Times,serif" font-size="14.00">account_update_params</text>
<text text-anchor="start" x="-372" y="-198.3" font-family="Times,serif" font-size="14.00">sign_up_params</text>
</g>
<!-- CategoriesController -->
<g id="node9" class="node"><title>CategoriesController</title>
<path fill="none" stroke="black" d="M297,285C297,285 403,285 403,285 409,285 415,279 415,273 415,273 415,85 415,85 415,79 409,73 403,73 403,73 297,73 297,73 291,73 285,79 285,85 285,85 285,273 285,273 285,279 291,285 297,285"/>
<text text-anchor="middle" x="350" y="88.2" font-family="Times,serif" font-size="14.00">CategoriesController</text>
<polyline fill="none" stroke="black" points="285,96 415,96 "/>
<text text-anchor="start" x="293" y="111.2" font-family="Times,serif" font-size="14.00">create</text>
<text text-anchor="start" x="293" y="126.2" font-family="Times,serif" font-size="14.00">destroy</text>
<text text-anchor="start" x="293" y="141.2" font-family="Times,serif" font-size="14.00">edit</text>
<text text-anchor="start" x="293" y="156.2" font-family="Times,serif" font-size="14.00">index</text>
<text text-anchor="start" x="293" y="171.2" font-family="Times,serif" font-size="14.00">new</text>
<text text-anchor="start" x="293" y="186.2" font-family="Times,serif" font-size="14.00">show</text>
<text text-anchor="start" x="293" y="201.2" font-family="Times,serif" font-size="14.00">update</text>
<polyline fill="none" stroke="black" points="285,209 415,209 "/>
<text text-anchor="start" x="293" y="224.2" font-family="Times,serif" font-size="14.00">check_if_admin</text>
<polyline fill="none" stroke="black" points="285,232 415,232 "/>
<text text-anchor="start" x="293" y="247.2" font-family="Times,serif" font-size="14.00">_layout</text>
<text text-anchor="start" x="293" y="262.2" font-family="Times,serif" font-size="14.00">category_params</text>
<text text-anchor="start" x="293" y="277.2" font-family="Times,serif" font-size="14.00">set_category</text>
</g>
<!-- ApplicationController -->
<g id="node10" class="node"><title>ApplicationController</title>
<path fill="none" stroke="black" d="M-387,-58C-387,-58 -275,-58 -275,-58 -269,-58 -263,-64 -263,-70 -263,-70 -263,-140 -263,-140 -263,-146 -269,-152 -275,-152 -275,-152 -387,-152 -387,-152 -393,-152 -399,-146 -399,-140 -399,-140 -399,-70 -399,-70 -399,-64 -393,-58 -387,-58"/>
<text text-anchor="middle" x="-331" y="-136.8" font-family="Times,serif" font-size="14.00">ApplicationController</text>
<polyline fill="none" stroke="black" points="-399,-129 -263,-129 "/>
<polyline fill="none" stroke="black" points="-399,-105 -263,-105 "/>
<polyline fill="none" stroke="black" points="-399,-81 -263,-81 "/>
<text text-anchor="start" x="-391" y="-65.8" font-family="Times,serif" font-size="14.00">_layout</text>
</g>
<!-- ConfirmationsController -->
<g id="node11" class="node"><title>ConfirmationsController</title>
<path fill="none" stroke="black" d="M12.5,417.5C12.5,417.5 159.5,417.5 159.5,417.5 165.5,417.5 171.5,411.5 171.5,405.5 171.5,405.5 171.5,320.5 171.5,320.5 171.5,314.5 165.5,308.5 159.5,308.5 159.5,308.5 12.5,308.5 12.5,308.5 6.5,308.5 0.5,314.5 0.5,320.5 0.5,320.5 0.5,405.5 0.5,405.5 0.5,411.5 6.5,417.5 12.5,417.5"/>
<text text-anchor="middle" x="86" y="323.7" font-family="Times,serif" font-size="14.00">ConfirmationsController</text>
<polyline fill="none" stroke="black" points="0.5,331.5 171.5,331.5 "/>
<polyline fill="none" stroke="black" points="0.5,355.5 171.5,355.5 "/>
<polyline fill="none" stroke="black" points="0.5,379.5 171.5,379.5 "/>
<text text-anchor="start" x="8.5" y="394.7" font-family="Times,serif" font-size="14.00">_layout</text>
<text text-anchor="start" x="8.5" y="409.7" font-family="Times,serif" font-size="14.00">after_confirmation_path_for</text>
</g>
<!-- ComponentsController -->
<g id="node12" class="node"><title>ComponentsController</title>
<path fill="none" stroke="black" d="M-25.5,-191C-25.5,-191 91.5,-191 91.5,-191 97.5,-191 103.5,-197 103.5,-203 103.5,-203 103.5,-407 103.5,-407 103.5,-413 97.5,-419 91.5,-419 91.5,-419 -25.5,-419 -25.5,-419 -31.5,-419 -37.5,-413 -37.5,-407 -37.5,-407 -37.5,-203 -37.5,-203 -37.5,-197 -31.5,-191 -25.5,-191"/>
<text text-anchor="middle" x="33" y="-403.8" font-family="Times,serif" font-size="14.00">ComponentsController</text>
<polyline fill="none" stroke="black" points="-37.5,-396 103.5,-396 "/>
<text text-anchor="start" x="-29.5" y="-380.8" font-family="Times,serif" font-size="14.00">create</text>
<text text-anchor="start" x="-29.5" y="-365.8" font-family="Times,serif" font-size="14.00">destroy</text>
<text text-anchor="start" x="-29.5" y="-350.8" font-family="Times,serif" font-size="14.00">edit</text>
<text text-anchor="start" x="-29.5" y="-335.8" font-family="Times,serif" font-size="14.00">index</text>
<text text-anchor="start" x="-29.5" y="-320.8" font-family="Times,serif" font-size="14.00">new</text>
<text text-anchor="start" x="-29.5" y="-305.8" font-family="Times,serif" font-size="14.00">setstatus</text>
<text text-anchor="start" x="-29.5" y="-290.8" font-family="Times,serif" font-size="14.00">show</text>
<text text-anchor="start" x="-29.5" y="-275.8" font-family="Times,serif" font-size="14.00">update</text>
<polyline fill="none" stroke="black" points="-37.5,-268 103.5,-268 "/>
<polyline fill="none" stroke="black" points="-37.5,-244 103.5,-244 "/>
<text text-anchor="start" x="-29.5" y="-228.8" font-family="Times,serif" font-size="14.00">_layout</text>
<text text-anchor="start" x="-29.5" y="-213.8" font-family="Times,serif" font-size="14.00">component_params</text>
<text text-anchor="start" x="-29.5" y="-198.8" font-family="Times,serif" font-size="14.00">set_component</text>
</g>
<!-- ArticlesController -->
<g id="node13" class="node"><title>ArticlesController</title>
<path fill="none" stroke="black" d="M-64,151.5C-64,151.5 58,151.5 58,151.5 64,151.5 70,145.5 70,139.5 70,139.5 70,-139.5 70,-139.5 70,-145.5 64,-151.5 58,-151.5 58,-151.5 -64,-151.5 -64,-151.5 -70,-151.5 -76,-145.5 -76,-139.5 -76,-139.5 -76,139.5 -76,139.5 -76,145.5 -70,151.5 -64,151.5"/>
<text text-anchor="middle" x="-3" y="-136.3" font-family="Times,serif" font-size="14.00">ArticlesController</text>
<polyline fill="none" stroke="black" points="-76,-128.5 70,-128.5 "/>
<text text-anchor="start" x="-68" y="-113.3" font-family="Times,serif" font-size="14.00">activating</text>
<text text-anchor="start" x="-68" y="-98.3" font-family="Times,serif" font-size="14.00">article_tags</text>
<text text-anchor="start" x="-68" y="-83.3" font-family="Times,serif" font-size="14.00">create</text>
<text text-anchor="start" x="-68" y="-68.3" font-family="Times,serif" font-size="14.00">destroy</text>
<text text-anchor="start" x="-68" y="-53.3" font-family="Times,serif" font-size="14.00">edit</text>
<text text-anchor="start" x="-68" y="-38.3" font-family="Times,serif" font-size="14.00">highlighting</text>
<text text-anchor="start" x="-68" y="-23.3" font-family="Times,serif" font-size="14.00">index</text>
<text text-anchor="start" x="-68" y="-8.3" font-family="Times,serif" font-size="14.00">new</text>
<text text-anchor="start" x="-68" y="6.7" font-family="Times,serif" font-size="14.00">print_article</text>
<text text-anchor="start" x="-68" y="21.7" font-family="Times,serif" font-size="14.00">print_article_comments</text>
<text text-anchor="start" x="-68" y="36.7" font-family="Times,serif" font-size="14.00">show</text>
<text text-anchor="start" x="-68" y="51.7" font-family="Times,serif" font-size="14.00">update</text>
<text text-anchor="start" x="-68" y="66.7" font-family="Times,serif" font-size="14.00">visited</text>
<polyline fill="none" stroke="black" points="-76,74.5 70,74.5 "/>
<polyline fill="none" stroke="black" points="-76,98.5 70,98.5 "/>
<text text-anchor="start" x="-68" y="113.7" font-family="Times,serif" font-size="14.00">_layout</text>
<text text-anchor="start" x="-68" y="128.7" font-family="Times,serif" font-size="14.00">article_params</text>
<text text-anchor="start" x="-68" y="143.7" font-family="Times,serif" font-size="14.00">set_article</text>
</g>
<!-- CalendarController -->
<g id="node14" class="node"><title>CalendarController</title>
<path fill="none" stroke="black" d="M220.5,417.5C220.5,417.5 317.5,417.5 317.5,417.5 323.5,417.5 329.5,411.5 329.5,405.5 329.5,405.5 329.5,336.5 329.5,336.5 329.5,330.5 323.5,324.5 317.5,324.5 317.5,324.5 220.5,324.5 220.5,324.5 214.5,324.5 208.5,330.5 208.5,336.5 208.5,336.5 208.5,405.5 208.5,405.5 208.5,411.5 214.5,417.5 220.5,417.5"/>
<text text-anchor="middle" x="269" y="339.7" font-family="Times,serif" font-size="14.00">CalendarController</text>
<polyline fill="none" stroke="black" points="208.5,347.5 329.5,347.5 "/>
<text text-anchor="start" x="216.5" y="362.7" font-family="Times,serif" font-size="14.00">show</text>
<polyline fill="none" stroke="black" points="208.5,370.5 329.5,370.5 "/>
<polyline fill="none" stroke="black" points="208.5,394.5 329.5,394.5 "/>
<text text-anchor="start" x="216.5" y="409.7" font-family="Times,serif" font-size="14.00">_layout</text>
</g>
<!-- EventsController -->
<g id="node15" class="node"><title>EventsController</title>
<path fill="none" stroke="black" d="M316.5,37C316.5,37 401.5,37 401.5,37 407.5,37 413.5,31 413.5,25 413.5,25 413.5,-179 413.5,-179 413.5,-185 407.5,-191 401.5,-191 401.5,-191 316.5,-191 316.5,-191 310.5,-191 304.5,-185 304.5,-179 304.5,-179 304.5,25 304.5,25 304.5,31 310.5,37 316.5,37"/>
<text text-anchor="middle" x="359" y="-175.8" font-family="Times,serif" font-size="14.00">EventsController</text>
<polyline fill="none" stroke="black" points="304.5,-168 413.5,-168 "/>
<text text-anchor="start" x="312.5" y="-152.8" font-family="Times,serif" font-size="14.00">create</text>
<text text-anchor="start" x="312.5" y="-137.8" font-family="Times,serif" font-size="14.00">destroy</text>
<text text-anchor="start" x="312.5" y="-122.8" font-family="Times,serif" font-size="14.00">edit</text>
<text text-anchor="start" x="312.5" y="-107.8" font-family="Times,serif" font-size="14.00">index</text>
<text text-anchor="start" x="312.5" y="-92.8" font-family="Times,serif" font-size="14.00">new</text>
<text text-anchor="start" x="312.5" y="-77.8" font-family="Times,serif" font-size="14.00">show</text>
<text text-anchor="start" x="312.5" y="-62.8" font-family="Times,serif" font-size="14.00">update</text>
<text text-anchor="start" x="312.5" y="-47.8" font-family="Times,serif" font-size="14.00">visited</text>
<polyline fill="none" stroke="black" points="304.5,-40 413.5,-40 "/>
<polyline fill="none" stroke="black" points="304.5,-16 413.5,-16 "/>
<text text-anchor="start" x="312.5" y="-0.8" font-family="Times,serif" font-size="14.00">_layout</text>
<text text-anchor="start" x="312.5" y="14.2" font-family="Times,serif" font-size="14.00">event_params</text>
<text text-anchor="start" x="312.5" y="29.2" font-family="Times,serif" font-size="14.00">set_event</text>
</g>
<!-- CommentsController -->
<g id="node16" class="node"><title>CommentsController</title>
<path fill="none" stroke="black" d="M-292,303.5C-292,303.5 -184,303.5 -184,303.5 -178,303.5 -172,297.5 -172,291.5 -172,291.5 -172,102.5 -172,102.5 -172,96.5 -178,90.5 -184,90.5 -184,90.5 -292,90.5 -292,90.5 -298,90.5 -304,96.5 -304,102.5 -304,102.5 -304,291.5 -304,291.5 -304,297.5 -298,303.5 -292,303.5"/>
<text text-anchor="middle" x="-238" y="105.7" font-family="Times,serif" font-size="14.00">CommentsController</text>
<polyline fill="none" stroke="black" points="-304,113.5 -172,113.5 "/>
<text text-anchor="start" x="-296" y="128.7" font-family="Times,serif" font-size="14.00">create</text>
<text text-anchor="start" x="-296" y="143.7" font-family="Times,serif" font-size="14.00">destroy</text>
<text text-anchor="start" x="-296" y="158.7" font-family="Times,serif" font-size="14.00">edit</text>
<text text-anchor="start" x="-296" y="173.7" font-family="Times,serif" font-size="14.00">index</text>
<text text-anchor="start" x="-296" y="188.7" font-family="Times,serif" font-size="14.00">new</text>
<text text-anchor="start" x="-296" y="203.7" font-family="Times,serif" font-size="14.00">show</text>
<text text-anchor="start" x="-296" y="218.7" font-family="Times,serif" font-size="14.00">update</text>
<polyline fill="none" stroke="black" points="-304,226.5 -172,226.5 "/>
<polyline fill="none" stroke="black" points="-304,250.5 -172,250.5 "/>
<text text-anchor="start" x="-296" y="265.7" font-family="Times,serif" font-size="14.00">_layout</text>
<text text-anchor="start" x="-296" y="280.7" font-family="Times,serif" font-size="14.00">comment_params</text>
<text text-anchor="start" x="-296" y="295.7" font-family="Times,serif" font-size="14.00">set_comment</text>
</g>
<!-- UsersController -->
<g id="node17" class="node"><title>UsersController</title>
<path fill="none" stroke="black" d="M-178.5,-190.5C-178.5,-190.5 -81.5,-190.5 -81.5,-190.5 -75.5,-190.5 -69.5,-196.5 -69.5,-202.5 -69.5,-202.5 -69.5,-421.5 -69.5,-421.5 -69.5,-427.5 -75.5,-433.5 -81.5,-433.5 -81.5,-433.5 -178.5,-433.5 -178.5,-433.5 -184.5,-433.5 -190.5,-427.5 -190.5,-421.5 -190.5,-421.5 -190.5,-202.5 -190.5,-202.5 -190.5,-196.5 -184.5,-190.5 -178.5,-190.5"/>
<text text-anchor="middle" x="-130" y="-418.3" font-family="Times,serif" font-size="14.00">UsersController</text>
<polyline fill="none" stroke="black" points="-190.5,-410.5 -69.5,-410.5 "/>
<text text-anchor="start" x="-182.5" y="-395.3" font-family="Times,serif" font-size="14.00">addnotes</text>
<text text-anchor="start" x="-182.5" y="-380.3" font-family="Times,serif" font-size="14.00">create</text>
<text text-anchor="start" x="-182.5" y="-365.3" font-family="Times,serif" font-size="14.00">destroy</text>
<text text-anchor="start" x="-182.5" y="-350.3" font-family="Times,serif" font-size="14.00">edit</text>
<text text-anchor="start" x="-182.5" y="-335.3" font-family="Times,serif" font-size="14.00">grantadmin</text>
<text text-anchor="start" x="-182.5" y="-320.3" font-family="Times,serif" font-size="14.00">new</text>
<text text-anchor="start" x="-182.5" y="-305.3" font-family="Times,serif" font-size="14.00">set_user</text>
<text text-anchor="start" x="-182.5" y="-290.3" font-family="Times,serif" font-size="14.00">update</text>
<text text-anchor="start" x="-182.5" y="-275.3" font-family="Times,serif" font-size="14.00">user_params</text>
<text text-anchor="start" x="-182.5" y="-260.3" font-family="Times,serif" font-size="14.00">user_params_edit</text>
<text text-anchor="start" x="-182.5" y="-245.3" font-family="Times,serif" font-size="14.00">user_params_notes</text>
<polyline fill="none" stroke="black" points="-190.5,-237.5 -69.5,-237.5 "/>
<polyline fill="none" stroke="black" points="-190.5,-213.5 -69.5,-213.5 "/>
<text text-anchor="start" x="-182.5" y="-198.3" font-family="Times,serif" font-size="14.00">_layout</text>
</g>
</g>
</svg>
