<?xml version="1.0" encoding="UTF-8" standalone="no"?>
<!DOCTYPE svg PUBLIC "-//W3C//DTD SVG 1.1//EN"
 "http://www.w3.org/Graphics/SVG/1.1/DTD/svg11.dtd">
<!-- Generated by graphviz version 2.38.0 (20140413.2041)
 -->
<!-- Title: models_diagram Pages: 1 -->
<svg width="1378pt" height="230pt"
 viewBox="0.00 0.00 1378.10 230.00" xmlns="http://www.w3.org/2000/svg" xmlns:xlink="http://www.w3.org/1999/xlink">
<g id="graph0" class="graph" transform="scale(1 1) rotate(0) translate(4 226)">
<title>models_diagram</title>
<polygon fill="none" stroke="none" points="-4,4 -4,-226 1374.1,-226 1374.1,4 -4,4"/>
<!-- _diagram_info -->
<g id="node1" class="node"><title>_diagram_info</title>
<text text-anchor="start" x="8" y="-207.6" font-family="Times,serif" font-size="13.00">Models diagram</text>
<text text-anchor="start" x="8" y="-193.6" font-family="Times,serif" font-size="13.00">Date: Apr 10 2017 &#45; 20:45</text>
<text text-anchor="start" x="8" y="-179.6" font-family="Times,serif" font-size="13.00">Migration version: 20170410155645</text>
<text text-anchor="start" x="8" y="-165.6" font-family="Times,serif" font-size="13.00">Generated by RailRoady 1.5.2</text>
<text text-anchor="start" x="8" y="-151.6" font-family="Times,serif" font-size="13.00">http://railroady.prestonlee.com</text>
</g>
<!-- User -->
<g id="node2" class="node"><title>User</title>
<ellipse fill="none" stroke="black" cx="404" cy="-183" rx="27.0966" ry="18"/>
<text text-anchor="middle" x="404" y="-179.3" font-family="Times,serif" font-size="14.00">User</text>
</g>
<!-- Article -->
<g id="node6" class="node"><title>Article</title>
<ellipse fill="none" stroke="black" cx="275" cy="-90" rx="35.194" ry="18"/>
<text text-anchor="middle" x="275" y="-86.3" font-family="Times,serif" font-size="14.00">Article</text>
</g>
<!-- User&#45;&gt;Article -->
<g id="edge1" class="edge"><title>User&#45;&gt;Article</title>
<path fill="none" stroke="#539918" d="M379.504,-164.72C357.747,-149.372 325.956,-126.946 303.158,-110.863"/>
<ellipse fill="none" stroke="#539918" cx="382.795" cy="-167.041" rx="4.00002" ry="4.00002"/>
<polygon fill="#539918" stroke="#539918" points="303.071,-110.802 297.494,-101.361 298.986,-107.92 294.9,-105.038 294.9,-105.038 294.9,-105.038 298.986,-107.92 292.306,-108.715 303.071,-110.802 303.071,-110.802"/>
</g>
<!-- Event -->
<g id="node10" class="node"><title>Event</title>
<ellipse fill="none" stroke="black" cx="446" cy="-90" rx="31.3957" ry="18"/>
<text text-anchor="middle" x="446" y="-86.3" font-family="Times,serif" font-size="14.00">Event</text>
</g>
<!-- User&#45;&gt;Event -->
<g id="edge2" class="edge"><title>User&#45;&gt;Event</title>
<path fill="none" stroke="#8006da" d="M415.111,-157.925C420.95,-145.274 428.111,-129.759 434.067,-116.854"/>
<ellipse fill="none" stroke="#8006da" cx="413.38" cy="-161.677" rx="4.00002" ry="4.00002"/>
<polygon fill="#8006da" stroke="#8006da" points="434.155,-116.665 442.431,-109.471 436.25,-112.125 438.345,-107.585 438.345,-107.585 438.345,-107.585 436.25,-112.125 434.26,-105.699 434.155,-116.665 434.155,-116.665"/>
</g>
<!-- Tag -->
<g id="node3" class="node"><title>Tag</title>
<ellipse fill="none" stroke="black" cx="355" cy="-90" rx="27" ry="18"/>
<text text-anchor="middle" x="355" y="-86.3" font-family="Times,serif" font-size="14.00">Tag</text>
</g>
<!-- TagRef -->
<g id="node13" class="node"><title>TagRef</title>
<ellipse fill="none" stroke="black" cx="347" cy="-18" rx="37.0935" ry="18"/>
<text text-anchor="middle" x="347" y="-14.3" font-family="Times,serif" font-size="14.00">TagRef</text>
</g>
<!-- Tag&#45;&gt;TagRef -->
<g id="edge3" class="edge"><title>Tag&#45;&gt;TagRef</title>
<path fill="none" stroke="#ed0fd7" d="M352.102,-63.6398C351.448,-57.92 350.752,-51.8276 350.09,-46.0416"/>
<ellipse fill="none" stroke="#ed0fd7" cx="352.568" cy="-67.7225" rx="4.00001" ry="4.00001"/>
<polygon fill="#ed0fd7" stroke="#ed0fd7" points="350.09,-46.0397 353.426,-35.5933 349.523,-41.072 348.955,-36.1043 348.955,-36.1043 348.955,-36.1043 349.523,-41.072 344.484,-36.6153 350.09,-46.0397 350.09,-46.0397"/>
</g>
<!-- Category -->
<g id="node4" class="node"><title>Category</title>
<ellipse fill="none" stroke="black" cx="275" cy="-183" rx="42.7926" ry="18"/>
<text text-anchor="middle" x="275" y="-179.3" font-family="Times,serif" font-size="14.00">Category</text>
</g>
<!-- Category&#45;&gt;Article -->
<g id="edge4" class="edge"><title>Category&#45;&gt;Article</title>
<path fill="none" stroke="#54255a" d="M275,-156.729C275,-144.725 275,-130.362 275,-118.129"/>
<ellipse fill="none" stroke="#54255a" cx="275" cy="-160.884" rx="4" ry="4"/>
<polygon fill="#54255a" stroke="#54255a" points="275,-118.04 279.5,-108.04 275,-113.04 275,-108.04 275,-108.04 275,-108.04 275,-113.04 270.5,-108.04 275,-118.04 275,-118.04"/>
</g>
<!-- Component -->
<g id="node5" class="node"><title>Component</title>
<ellipse fill="none" stroke="black" cx="501" cy="-183" rx="51.9908" ry="18"/>
<text text-anchor="middle" x="501" y="-179.3" font-family="Times,serif" font-size="14.00">Component</text>
</g>
<!-- Article&#45;&gt;TagRef -->
<g id="edge6" class="edge"><title>Article&#45;&gt;TagRef</title>
<path fill="none" stroke="#0a32ba" d="M296.498,-68.0992C305.037,-59.7977 314.882,-50.2256 323.6,-41.7503"/>
<ellipse fill="none" stroke="#0a32ba" cx="293.491" cy="-71.0227" rx="4.00002" ry="4.00002"/>
<polygon fill="#0a32ba" stroke="#0a32ba" points="323.739,-41.6148 334.046,-37.8705 327.324,-38.1294 330.909,-34.644 330.909,-34.644 330.909,-34.644 327.324,-38.1294 327.772,-31.4175 323.739,-41.6148 323.739,-41.6148"/>
</g>
<!-- Comment -->
<g id="node14" class="node"><title>Comment</title>
<ellipse fill="none" stroke="black" cx="246" cy="-18" rx="46.2923" ry="18"/>
<text text-anchor="middle" x="246" y="-14.3" font-family="Times,serif" font-size="14.00">Comment</text>
</g>
<!-- Article&#45;&gt;Comment -->
<g id="edge5" class="edge"><title>Article&#45;&gt;Comment</title>
<path fill="none" stroke="#8efe65" d="M264.87,-64.5475C262.335,-58.4284 259.603,-51.8347 257.027,-45.6163"/>
<ellipse fill="none" stroke="#8efe65" cx="266.449" cy="-68.3595" rx="4.00002" ry="4.00002"/>
<polygon fill="#8efe65" stroke="#8efe65" points="256.984,-45.5139 257.314,-34.5529 255.071,-40.8946 253.157,-36.2753 253.157,-36.2753 253.157,-36.2753 255.071,-40.8946 249,-37.9977 256.984,-45.5139 256.984,-45.5139"/>
</g>
<!-- Ckeditor::Picture -->
<g id="node7" class="node"><title>Ckeditor::Picture</title>
<ellipse fill="none" stroke="black" cx="642" cy="-183" rx="71.4873" ry="18"/>
<text text-anchor="middle" x="642" y="-179.3" font-family="Times,serif" font-size="14.00">Ckeditor::Picture</text>
</g>
<!-- Ckeditor::Asset -->
<g id="node8" class="node"><title>Ckeditor::Asset</title>
<ellipse fill="none" stroke="black" cx="797" cy="-183" rx="65.7887" ry="18"/>
<text text-anchor="middle" x="797" y="-179.3" font-family="Times,serif" font-size="14.00">Ckeditor::Asset</text>
</g>
<!-- Ckeditor::AttachmentFile -->
<g id="node9" class="node"><title>Ckeditor::AttachmentFile</title>
<ellipse fill="none" stroke="black" cx="982" cy="-183" rx="101.282" ry="18"/>
<text text-anchor="middle" x="982" y="-179.3" font-family="Times,serif" font-size="14.00">Ckeditor::AttachmentFile</text>
</g>
<!-- EventGuest -->
<g id="node15" class="node"><title>EventGuest</title>
<ellipse fill="none" stroke="black" cx="454" cy="-18" rx="51.9908" ry="18"/>
<text text-anchor="middle" x="454" y="-14.3" font-family="Times,serif" font-size="14.00">EventGuest</text>
</g>
<!-- Event&#45;&gt;EventGuest -->
<g id="edge7" class="edge"><title>Event&#45;&gt;EventGuest</title>
<path fill="none" stroke="#62de18" d="M448.898,-63.6398C449.552,-57.92 450.248,-51.8276 450.91,-46.0416"/>
<ellipse fill="none" stroke="#62de18" cx="448.432" cy="-67.7225" rx="4.00001" ry="4.00001"/>
<polygon fill="#62de18" stroke="#62de18" points="450.91,-46.0397 456.516,-36.6153 451.477,-41.072 452.045,-36.1043 452.045,-36.1043 452.045,-36.1043 451.477,-41.072 447.574,-35.5933 450.91,-46.0397 450.91,-46.0397"/>
</g>
<!-- ApplicationRecord -->
<g id="node11" class="node"><title>ApplicationRecord</title>
<ellipse fill="none" stroke="black" cx="1179" cy="-183" rx="77.1866" ry="18"/>
<text text-anchor="middle" x="1179" y="-179.3" font-family="Times,serif" font-size="14.00">ApplicationRecord</text>
</g>
<!-- Bookmark -->
<g id="node12" class="node"><title>Bookmark</title>
<ellipse fill="none" stroke="black" cx="1322" cy="-183" rx="48.1917" ry="18"/>
<text text-anchor="middle" x="1322" y="-179.3" font-family="Times,serif" font-size="14.00">Bookmark</text>
</g>
</g>
</svg>
