<?xml version="1.0" encoding="UTF-8" standalone="no"?>
<!DOCTYPE svg PUBLIC "-//W3C//DTD SVG 1.1//EN"
 "http://www.w3.org/Graphics/SVG/1.1/DTD/svg11.dtd">
<!-- Generated by graphviz version 2.38.0 (20140413.2041)
 -->
<!-- Title: models_diagram Pages: 1 -->
<svg width="2411pt" height="776pt"
 viewBox="0.00 0.00 2411.00 776.00" xmlns="http://www.w3.org/2000/svg" xmlns:xlink="http://www.w3.org/1999/xlink">
<g id="graph0" class="graph" transform="scale(1 1) rotate(0) translate(4 772)">
<title>models_diagram</title>
<polygon fill="none" stroke="none" points="-4,4 -4,-772 2407,-772 2407,4 -4,4"/>
<!-- _diagram_info -->
<g id="node1" class="node"><title>_diagram_info</title>
<text text-anchor="start" x="8" y="-634.1" font-family="Times,serif" font-size="13.00">Models diagram</text>
<text text-anchor="start" x="8" y="-620.1" font-family="Times,serif" font-size="13.00">Date: Apr 10 2017 &#45; 20:45</text>
<text text-anchor="start" x="8" y="-606.1" font-family="Times,serif" font-size="13.00">Migration version: 20170410155645</text>
<text text-anchor="start" x="8" y="-592.1" font-family="Times,serif" font-size="13.00">Generated by RailRoady 1.5.2</text>
<text text-anchor="start" x="8" y="-578.1" font-family="Times,serif" font-size="13.00">http://railroady.prestonlee.com</text>
</g>
<!-- User -->
<g id="node2" class="node"><title>User</title>
<path fill="none" stroke="black" d="M619.5,-451.5C619.5,-451.5 908.5,-451.5 908.5,-451.5 914.5,-451.5 920.5,-457.5 920.5,-463.5 920.5,-463.5 920.5,-755.5 920.5,-755.5 920.5,-761.5 914.5,-767.5 908.5,-767.5 908.5,-767.5 619.5,-767.5 619.5,-767.5 613.5,-767.5 607.5,-761.5 607.5,-755.5 607.5,-755.5 607.5,-463.5 607.5,-463.5 607.5,-457.5 613.5,-451.5 619.5,-451.5"/>
<text text-anchor="middle" x="764" y="-752.3" font-family="Times,serif" font-size="14.00">User</text>
<polyline fill="none" stroke="black" points="607.5,-744.5 920.5,-744.5 "/>
<text text-anchor="start" x="615.5" y="-729.3" font-family="Times,serif" font-size="14.00">id :integer</text>
<text text-anchor="start" x="615.5" y="-714.3" font-family="Times,serif" font-size="14.00">email :character varying</text>
<text text-anchor="start" x="615.5" y="-699.3" font-family="Times,serif" font-size="14.00">encrypted_password :character varying</text>
<text text-anchor="start" x="615.5" y="-684.3" font-family="Times,serif" font-size="14.00">reset_password_token :character varying</text>
<text text-anchor="start" x="615.5" y="-669.3" font-family="Times,serif" font-size="14.00">reset_password_sent_at :timestamp without time zone</text>
<text text-anchor="start" x="615.5" y="-654.3" font-family="Times,serif" font-size="14.00">remember_created_at :timestamp without time zone</text>
<text text-anchor="start" x="615.5" y="-639.3" font-family="Times,serif" font-size="14.00">sign_in_count :integer</text>
<text text-anchor="start" x="615.5" y="-624.3" font-family="Times,serif" font-size="14.00">current_sign_in_at :timestamp without time zone</text>
<text text-anchor="start" x="615.5" y="-609.3" font-family="Times,serif" font-size="14.00">last_sign_in_at :timestamp without time zone</text>
<text text-anchor="start" x="615.5" y="-594.3" font-family="Times,serif" font-size="14.00">current_sign_in_ip :inet</text>
<text text-anchor="start" x="615.5" y="-579.3" font-family="Times,serif" font-size="14.00">last_sign_in_ip :inet</text>
<text text-anchor="start" x="615.5" y="-564.3" font-family="Times,serif" font-size="14.00">created_at :timestamp without time zone</text>
<text text-anchor="start" x="615.5" y="-549.3" font-family="Times,serif" font-size="14.00">updated_at :timestamp without time zone</text>
<text text-anchor="start" x="615.5" y="-534.3" font-family="Times,serif" font-size="14.00">admin :boolean</text>
<text text-anchor="start" x="615.5" y="-519.3" font-family="Times,serif" font-size="14.00">first_name :character varying</text>
<text text-anchor="start" x="615.5" y="-504.3" font-family="Times,serif" font-size="14.00">last_name :character varying</text>
<text text-anchor="start" x="615.5" y="-489.3" font-family="Times,serif" font-size="14.00">confirmation_token :character varying</text>
<text text-anchor="start" x="615.5" y="-474.3" font-family="Times,serif" font-size="14.00">confirmed_at :timestamp without time zone</text>
<text text-anchor="start" x="615.5" y="-459.3" font-family="Times,serif" font-size="14.00">confirmation_sent_at :timestamp without time zone</text>
</g>
<!-- Article -->
<g id="node6" class="node"><title>Article</title>
<path fill="none" stroke="black" d="M244,-188.5C244,-188.5 464,-188.5 464,-188.5 470,-188.5 476,-194.5 476,-200.5 476,-200.5 476,-402.5 476,-402.5 476,-408.5 470,-414.5 464,-414.5 464,-414.5 244,-414.5 244,-414.5 238,-414.5 232,-408.5 232,-402.5 232,-402.5 232,-200.5 232,-200.5 232,-194.5 238,-188.5 244,-188.5"/>
<text text-anchor="middle" x="354" y="-399.3" font-family="Times,serif" font-size="14.00">Article</text>
<polyline fill="none" stroke="black" points="232,-391.5 476,-391.5 "/>
<text text-anchor="start" x="240" y="-376.3" font-family="Times,serif" font-size="14.00">id :integer</text>
<text text-anchor="start" x="240" y="-361.3" font-family="Times,serif" font-size="14.00">title :text</text>
<text text-anchor="start" x="240" y="-346.3" font-family="Times,serif" font-size="14.00">category_id :integer</text>
<text text-anchor="start" x="240" y="-331.3" font-family="Times,serif" font-size="14.00">active :boolean</text>
<text text-anchor="start" x="240" y="-316.3" font-family="Times,serif" font-size="14.00">intro :text</text>
<text text-anchor="start" x="240" y="-301.3" font-family="Times,serif" font-size="14.00">content :text</text>
<text text-anchor="start" x="240" y="-286.3" font-family="Times,serif" font-size="14.00">visit :integer</text>
<text text-anchor="start" x="240" y="-271.3" font-family="Times,serif" font-size="14.00">highlight :boolean</text>
<text text-anchor="start" x="240" y="-256.3" font-family="Times,serif" font-size="14.00">created_at :timestamp without time zone</text>
<text text-anchor="start" x="240" y="-241.3" font-family="Times,serif" font-size="14.00">updated_at :timestamp without time zone</text>
<text text-anchor="start" x="240" y="-226.3" font-family="Times,serif" font-size="14.00">user_id :integer</text>
<text text-anchor="start" x="240" y="-211.3" font-family="Times,serif" font-size="14.00">image :text</text>
<text text-anchor="start" x="240" y="-196.3" font-family="Times,serif" font-size="14.00">comments_on :boolean</text>
</g>
<!-- User&#45;&gt;Article -->
<g id="edge1" class="edge"><title>User&#45;&gt;Article</title>
<path fill="none" stroke="#e7662b" d="M600.707,-499.438C562.209,-472.581 521.705,-443.368 485,-415 484.722,-414.785 484.444,-414.57 484.166,-414.354"/>
<ellipse fill="none" stroke="#e7662b" cx="604.085" cy="-501.79" rx="4.00002" ry="4.00002"/>
<polygon fill="#e7662b" stroke="#e7662b" points="483.922,-414.164 478.819,-404.458 479.984,-411.083 476.046,-408.002 476.046,-408.002 476.046,-408.002 479.984,-411.083 473.273,-411.546 483.922,-414.164 483.922,-414.164"/>
</g>
<!-- Event -->
<g id="node10" class="node"><title>Event</title>
<path fill="none" stroke="black" d="M768,-196C768,-196 988,-196 988,-196 994,-196 1000,-202 1000,-208 1000,-208 1000,-395 1000,-395 1000,-401 994,-407 988,-407 988,-407 768,-407 768,-407 762,-407 756,-401 756,-395 756,-395 756,-208 756,-208 756,-202 762,-196 768,-196"/>
<text text-anchor="middle" x="878" y="-391.8" font-family="Times,serif" font-size="14.00">Event</text>
<polyline fill="none" stroke="black" points="756,-384 1000,-384 "/>
<text text-anchor="start" x="764" y="-368.8" font-family="Times,serif" font-size="14.00">id :integer</text>
<text text-anchor="start" x="764" y="-353.8" font-family="Times,serif" font-size="14.00">title :text</text>
<text text-anchor="start" x="764" y="-338.8" font-family="Times,serif" font-size="14.00">content :text</text>
<text text-anchor="start" x="764" y="-323.8" font-family="Times,serif" font-size="14.00">active :boolean</text>
<text text-anchor="start" x="764" y="-308.8" font-family="Times,serif" font-size="14.00">highlight :boolean</text>
<text text-anchor="start" x="764" y="-293.8" font-family="Times,serif" font-size="14.00">visit :integer</text>
<text text-anchor="start" x="764" y="-278.8" font-family="Times,serif" font-size="14.00">followers :integer</text>
<text text-anchor="start" x="764" y="-263.8" font-family="Times,serif" font-size="14.00">created_at :timestamp without time zone</text>
<text text-anchor="start" x="764" y="-248.8" font-family="Times,serif" font-size="14.00">updated_at :timestamp without time zone</text>
<text text-anchor="start" x="764" y="-233.8" font-family="Times,serif" font-size="14.00">term :date</text>
<text text-anchor="start" x="764" y="-218.8" font-family="Times,serif" font-size="14.00">user_id :integer</text>
<text text-anchor="start" x="764" y="-203.8" font-family="Times,serif" font-size="14.00">image :text</text>
</g>
<!-- User&#45;&gt;Event -->
<g id="edge2" class="edge"><title>User&#45;&gt;Event</title>
<path fill="none" stroke="#c41611" d="M825.375,-443.756C828.759,-434.674 832.121,-425.648 835.415,-416.807"/>
<ellipse fill="none" stroke="#c41611" cx="823.899" cy="-447.718" rx="4.00001" ry="4.00001"/>
<polygon fill="#c41611" stroke="#c41611" points="835.469,-416.662 843.177,-408.862 837.215,-411.977 838.96,-407.291 838.96,-407.291 838.96,-407.291 837.215,-411.977 834.743,-405.72 835.469,-416.662 835.469,-416.662"/>
</g>
<!-- Tag -->
<g id="node3" class="node"><title>Tag</title>
<path fill="none" stroke="black" d="M506,-248.5C506,-248.5 726,-248.5 726,-248.5 732,-248.5 738,-254.5 738,-260.5 738,-260.5 738,-342.5 738,-342.5 738,-348.5 732,-354.5 726,-354.5 726,-354.5 506,-354.5 506,-354.5 500,-354.5 494,-348.5 494,-342.5 494,-342.5 494,-260.5 494,-260.5 494,-254.5 500,-248.5 506,-248.5"/>
<text text-anchor="middle" x="616" y="-339.3" font-family="Times,serif" font-size="14.00">Tag</text>
<polyline fill="none" stroke="black" points="494,-331.5 738,-331.5 "/>
<text text-anchor="start" x="502" y="-316.3" font-family="Times,serif" font-size="14.00">id :integer</text>
<text text-anchor="start" x="502" y="-301.3" font-family="Times,serif" font-size="14.00">title :text</text>
<text text-anchor="start" x="502" y="-286.3" font-family="Times,serif" font-size="14.00">active :boolean</text>
<text text-anchor="start" x="502" y="-271.3" font-family="Times,serif" font-size="14.00">created_at :timestamp without time zone</text>
<text text-anchor="start" x="502" y="-256.3" font-family="Times,serif" font-size="14.00">updated_at :timestamp without time zone</text>
</g>
<!-- TagRef -->
<g id="node13" class="node"><title>TagRef</title>
<path fill="none" stroke="black" d="M506,-23C506,-23 726,-23 726,-23 732,-23 738,-29 738,-35 738,-35 738,-117 738,-117 738,-123 732,-129 726,-129 726,-129 506,-129 506,-129 500,-129 494,-123 494,-117 494,-117 494,-35 494,-35 494,-29 500,-23 506,-23"/>
<text text-anchor="middle" x="616" y="-113.8" font-family="Times,serif" font-size="14.00">TagRef</text>
<polyline fill="none" stroke="black" points="494,-106 738,-106 "/>
<text text-anchor="start" x="502" y="-90.8" font-family="Times,serif" font-size="14.00">id :integer</text>
<text text-anchor="start" x="502" y="-75.8" font-family="Times,serif" font-size="14.00">tag_id :integer</text>
<text text-anchor="start" x="502" y="-60.8" font-family="Times,serif" font-size="14.00">article_id :integer</text>
<text text-anchor="start" x="502" y="-45.8" font-family="Times,serif" font-size="14.00">created_at :timestamp without time zone</text>
<text text-anchor="start" x="502" y="-30.8" font-family="Times,serif" font-size="14.00">updated_at :timestamp without time zone</text>
</g>
<!-- Tag&#45;&gt;TagRef -->
<g id="edge3" class="edge"><title>Tag&#45;&gt;TagRef</title>
<path fill="none" stroke="#de1fdb" d="M616,-240.215C616,-209.065 616,-171.089 616,-139.609"/>
<ellipse fill="none" stroke="#de1fdb" cx="616" cy="-244.381" rx="4" ry="4"/>
<polygon fill="#de1fdb" stroke="#de1fdb" points="616,-139.201 620.5,-129.201 616,-134.201 616,-129.201 616,-129.201 616,-129.201 616,-134.201 611.5,-129.201 616,-139.201 616,-139.201"/>
</g>
<!-- Category -->
<g id="node4" class="node"><title>Category</title>
<path fill="none" stroke="black" d="M244,-541.5C244,-541.5 464,-541.5 464,-541.5 470,-541.5 476,-547.5 476,-553.5 476,-553.5 476,-665.5 476,-665.5 476,-671.5 470,-677.5 464,-677.5 464,-677.5 244,-677.5 244,-677.5 238,-677.5 232,-671.5 232,-665.5 232,-665.5 232,-553.5 232,-553.5 232,-547.5 238,-541.5 244,-541.5"/>
<text text-anchor="middle" x="354" y="-662.3" font-family="Times,serif" font-size="14.00">Category</text>
<polyline fill="none" stroke="black" points="232,-654.5 476,-654.5 "/>
<text text-anchor="start" x="240" y="-639.3" font-family="Times,serif" font-size="14.00">id :integer</text>
<text text-anchor="start" x="240" y="-624.3" font-family="Times,serif" font-size="14.00">title :text</text>
<text text-anchor="start" x="240" y="-609.3" font-family="Times,serif" font-size="14.00">desc :text</text>
<text text-anchor="start" x="240" y="-594.3" font-family="Times,serif" font-size="14.00">active :boolean</text>
<text text-anchor="start" x="240" y="-579.3" font-family="Times,serif" font-size="14.00">created_at :timestamp without time zone</text>
<text text-anchor="start" x="240" y="-564.3" font-family="Times,serif" font-size="14.00">updated_at :timestamp without time zone</text>
<text text-anchor="start" x="240" y="-549.3" font-family="Times,serif" font-size="14.00">home_on :boolean</text>
</g>
<!-- Category&#45;&gt;Article -->
<g id="edge4" class="edge"><title>Category&#45;&gt;Article</title>
<path fill="none" stroke="#9b88b1" d="M354,-532.923C354,-500.326 354,-461.362 354,-424.831"/>
<ellipse fill="none" stroke="#9b88b1" cx="354" cy="-537.347" rx="4" ry="4"/>
<polygon fill="#9b88b1" stroke="#9b88b1" points="354,-424.599 358.5,-414.599 354,-419.599 354,-414.599 354,-414.599 354,-414.599 354,-419.599 349.5,-414.599 354,-424.599 354,-424.599"/>
</g>
<!-- Component -->
<g id="node5" class="node"><title>Component</title>
<path fill="none" stroke="black" d="M951,-541.5C951,-541.5 1171,-541.5 1171,-541.5 1177,-541.5 1183,-547.5 1183,-553.5 1183,-553.5 1183,-665.5 1183,-665.5 1183,-671.5 1177,-677.5 1171,-677.5 1171,-677.5 951,-677.5 951,-677.5 945,-677.5 939,-671.5 939,-665.5 939,-665.5 939,-553.5 939,-553.5 939,-547.5 945,-541.5 951,-541.5"/>
<text text-anchor="middle" x="1061" y="-662.3" font-family="Times,serif" font-size="14.00">Component</text>
<polyline fill="none" stroke="black" points="939,-654.5 1183,-654.5 "/>
<text text-anchor="start" x="947" y="-639.3" font-family="Times,serif" font-size="14.00">id :integer</text>
<text text-anchor="start" x="947" y="-624.3" font-family="Times,serif" font-size="14.00">title :text</text>
<text text-anchor="start" x="947" y="-609.3" font-family="Times,serif" font-size="14.00">content :text</text>
<text text-anchor="start" x="947" y="-594.3" font-family="Times,serif" font-size="14.00">order :integer</text>
<text text-anchor="start" x="947" y="-579.3" font-family="Times,serif" font-size="14.00">active :boolean</text>
<text text-anchor="start" x="947" y="-564.3" font-family="Times,serif" font-size="14.00">created_at :timestamp without time zone</text>
<text text-anchor="start" x="947" y="-549.3" font-family="Times,serif" font-size="14.00">updated_at :timestamp without time zone</text>
</g>
<!-- Article&#45;&gt;TagRef -->
<g id="edge6" class="edge"><title>Article&#45;&gt;TagRef</title>
<path fill="none" stroke="#2355a1" d="M482.21,-190.381C483.143,-189.584 484.073,-188.79 485,-188 504.921,-171.006 526.595,-152.606 546.473,-135.765"/>
<ellipse fill="none" stroke="#2355a1" cx="479.048" cy="-193.08" rx="4.00002" ry="4.00002"/>
<polygon fill="#2355a1" stroke="#2355a1" points="546.655,-135.611 557.194,-132.582 550.47,-132.38 554.285,-129.148 554.285,-129.148 554.285,-129.148 550.47,-132.38 551.377,-125.714 546.655,-135.611 546.655,-135.611"/>
</g>
<!-- Comment -->
<g id="node14" class="node"><title>Comment</title>
<path fill="none" stroke="black" d="M244,-0.5C244,-0.5 464,-0.5 464,-0.5 470,-0.5 476,-6.5 476,-12.5 476,-12.5 476,-139.5 476,-139.5 476,-145.5 470,-151.5 464,-151.5 464,-151.5 244,-151.5 244,-151.5 238,-151.5 232,-145.5 232,-139.5 232,-139.5 232,-12.5 232,-12.5 232,-6.5 238,-0.5 244,-0.5"/>
<text text-anchor="middle" x="354" y="-136.3" font-family="Times,serif" font-size="14.00">Comment</text>
<polyline fill="none" stroke="black" points="232,-128.5 476,-128.5 "/>
<text text-anchor="start" x="240" y="-113.3" font-family="Times,serif" font-size="14.00">id :integer</text>
<text text-anchor="start" x="240" y="-98.3" font-family="Times,serif" font-size="14.00">article_id :integer</text>
<text text-anchor="start" x="240" y="-83.3" font-family="Times,serif" font-size="14.00">author :text</text>
<text text-anchor="start" x="240" y="-68.3" font-family="Times,serif" font-size="14.00">content :text</text>
<text text-anchor="start" x="240" y="-53.3" font-family="Times,serif" font-size="14.00">email :text</text>
<text text-anchor="start" x="240" y="-38.3" font-family="Times,serif" font-size="14.00">ip :text</text>
<text text-anchor="start" x="240" y="-23.3" font-family="Times,serif" font-size="14.00">created_at :timestamp without time zone</text>
<text text-anchor="start" x="240" y="-8.3" font-family="Times,serif" font-size="14.00">updated_at :timestamp without time zone</text>
</g>
<!-- Article&#45;&gt;Comment -->
<g id="edge5" class="edge"><title>Article&#45;&gt;Comment</title>
<path fill="none" stroke="#1d54e7" d="M354,-180.281C354,-174.083 354,-167.919 354,-161.868"/>
<ellipse fill="none" stroke="#1d54e7" cx="354" cy="-184.423" rx="4" ry="4"/>
<polygon fill="#1d54e7" stroke="#1d54e7" points="354,-161.802 358.5,-151.802 354,-156.802 354,-151.802 354,-151.802 354,-151.802 354,-156.802 349.5,-151.802 354,-161.802 354,-161.802"/>
</g>
<!-- Ckeditor::Picture -->
<g id="node7" class="node"><title>Ckeditor::Picture</title>
<path fill="none" stroke="black" d="M1213,-526.5C1213,-526.5 1433,-526.5 1433,-526.5 1439,-526.5 1445,-532.5 1445,-538.5 1445,-538.5 1445,-680.5 1445,-680.5 1445,-686.5 1439,-692.5 1433,-692.5 1433,-692.5 1213,-692.5 1213,-692.5 1207,-692.5 1201,-686.5 1201,-680.5 1201,-680.5 1201,-538.5 1201,-538.5 1201,-532.5 1207,-526.5 1213,-526.5"/>
<text text-anchor="middle" x="1323" y="-677.3" font-family="Times,serif" font-size="14.00">Ckeditor::Picture</text>
<polyline fill="none" stroke="black" points="1201,-669.5 1445,-669.5 "/>
<text text-anchor="start" x="1209" y="-654.3" font-family="Times,serif" font-size="14.00">id :integer</text>
<text text-anchor="start" x="1209" y="-639.3" font-family="Times,serif" font-size="14.00">data_file_name :character varying</text>
<text text-anchor="start" x="1209" y="-624.3" font-family="Times,serif" font-size="14.00">data_content_type :character varying</text>
<text text-anchor="start" x="1209" y="-609.3" font-family="Times,serif" font-size="14.00">data_file_size :integer</text>
<text text-anchor="start" x="1209" y="-594.3" font-family="Times,serif" font-size="14.00">type :character varying(30)</text>
<text text-anchor="start" x="1209" y="-579.3" font-family="Times,serif" font-size="14.00">width :integer</text>
<text text-anchor="start" x="1209" y="-564.3" font-family="Times,serif" font-size="14.00">height :integer</text>
<text text-anchor="start" x="1209" y="-549.3" font-family="Times,serif" font-size="14.00">created_at :timestamp without time zone</text>
<text text-anchor="start" x="1209" y="-534.3" font-family="Times,serif" font-size="14.00">updated_at :timestamp without time zone</text>
</g>
<!-- Ckeditor::Asset -->
<g id="node8" class="node"><title>Ckeditor::Asset</title>
<path fill="none" stroke="black" d="M1475,-526.5C1475,-526.5 1695,-526.5 1695,-526.5 1701,-526.5 1707,-532.5 1707,-538.5 1707,-538.5 1707,-680.5 1707,-680.5 1707,-686.5 1701,-692.5 1695,-692.5 1695,-692.5 1475,-692.5 1475,-692.5 1469,-692.5 1463,-686.5 1463,-680.5 1463,-680.5 1463,-538.5 1463,-538.5 1463,-532.5 1469,-526.5 1475,-526.5"/>
<text text-anchor="middle" x="1585" y="-677.3" font-family="Times,serif" font-size="14.00">Ckeditor::Asset</text>
<polyline fill="none" stroke="black" points="1463,-669.5 1707,-669.5 "/>
<text text-anchor="start" x="1471" y="-654.3" font-family="Times,serif" font-size="14.00">id :integer</text>
<text text-anchor="start" x="1471" y="-639.3" font-family="Times,serif" font-size="14.00">data_file_name :character varying</text>
<text text-anchor="start" x="1471" y="-624.3" font-family="Times,serif" font-size="14.00">data_content_type :character varying</text>
<text text-anchor="start" x="1471" y="-609.3" font-family="Times,serif" font-size="14.00">data_file_size :integer</text>
<text text-anchor="start" x="1471" y="-594.3" font-family="Times,serif" font-size="14.00">type :character varying(30)</text>
<text text-anchor="start" x="1471" y="-579.3" font-family="Times,serif" font-size="14.00">width :integer</text>
<text text-anchor="start" x="1471" y="-564.3" font-family="Times,serif" font-size="14.00">height :integer</text>
<text text-anchor="start" x="1471" y="-549.3" font-family="Times,serif" font-size="14.00">created_at :timestamp without time zone</text>
<text text-anchor="start" x="1471" y="-534.3" font-family="Times,serif" font-size="14.00">updated_at :timestamp without time zone</text>
</g>
<!-- Ckeditor::AttachmentFile -->
<g id="node9" class="node"><title>Ckeditor::AttachmentFile</title>
<path fill="none" stroke="black" d="M1737,-526.5C1737,-526.5 1957,-526.5 1957,-526.5 1963,-526.5 1969,-532.5 1969,-538.5 1969,-538.5 1969,-680.5 1969,-680.5 1969,-686.5 1963,-692.5 1957,-692.5 1957,-692.5 1737,-692.5 1737,-692.5 1731,-692.5 1725,-686.5 1725,-680.5 1725,-680.5 1725,-538.5 1725,-538.5 1725,-532.5 1731,-526.5 1737,-526.5"/>
<text text-anchor="middle" x="1847" y="-677.3" font-family="Times,serif" font-size="14.00">Ckeditor::AttachmentFile</text>
<polyline fill="none" stroke="black" points="1725,-669.5 1969,-669.5 "/>
<text text-anchor="start" x="1733" y="-654.3" font-family="Times,serif" font-size="14.00">id :integer</text>
<text text-anchor="start" x="1733" y="-639.3" font-family="Times,serif" font-size="14.00">data_file_name :character varying</text>
<text text-anchor="start" x="1733" y="-624.3" font-family="Times,serif" font-size="14.00">data_content_type :character varying</text>
<text text-anchor="start" x="1733" y="-609.3" font-family="Times,serif" font-size="14.00">data_file_size :integer</text>
<text text-anchor="start" x="1733" y="-594.3" font-family="Times,serif" font-size="14.00">type :character varying(30)</text>
<text text-anchor="start" x="1733" y="-579.3" font-family="Times,serif" font-size="14.00">width :integer</text>
<text text-anchor="start" x="1733" y="-564.3" font-family="Times,serif" font-size="14.00">height :integer</text>
<text text-anchor="start" x="1733" y="-549.3" font-family="Times,serif" font-size="14.00">created_at :timestamp without time zone</text>
<text text-anchor="start" x="1733" y="-534.3" font-family="Times,serif" font-size="14.00">updated_at :timestamp without time zone</text>
</g>
<!-- EventGuest -->
<g id="node15" class="node"><title>EventGuest</title>
<path fill="none" stroke="black" d="M768,-8C768,-8 988,-8 988,-8 994,-8 1000,-14 1000,-20 1000,-20 1000,-132 1000,-132 1000,-138 994,-144 988,-144 988,-144 768,-144 768,-144 762,-144 756,-138 756,-132 756,-132 756,-20 756,-20 756,-14 762,-8 768,-8"/>
<text text-anchor="middle" x="878" y="-128.8" font-family="Times,serif" font-size="14.00">EventGuest</text>
<polyline fill="none" stroke="black" points="756,-121 1000,-121 "/>
<text text-anchor="start" x="764" y="-105.8" font-family="Times,serif" font-size="14.00">id :integer</text>
<text text-anchor="start" x="764" y="-90.8" font-family="Times,serif" font-size="14.00">event_id :integer</text>
<text text-anchor="start" x="764" y="-75.8" font-family="Times,serif" font-size="14.00">author :text</text>
<text text-anchor="start" x="764" y="-60.8" font-family="Times,serif" font-size="14.00">email :text</text>
<text text-anchor="start" x="764" y="-45.8" font-family="Times,serif" font-size="14.00">ip :text</text>
<text text-anchor="start" x="764" y="-30.8" font-family="Times,serif" font-size="14.00">created_at :timestamp without time zone</text>
<text text-anchor="start" x="764" y="-15.8" font-family="Times,serif" font-size="14.00">updated_at :timestamp without time zone</text>
</g>
<!-- Event&#45;&gt;EventGuest -->
<g id="edge7" class="edge"><title>Event&#45;&gt;EventGuest</title>
<path fill="none" stroke="#bf639f" d="M878,-187.683C878,-176.403 878,-165.137 878,-154.346"/>
<ellipse fill="none" stroke="#bf639f" cx="878" cy="-191.948" rx="4" ry="4"/>
<polygon fill="#bf639f" stroke="#bf639f" points="878,-154.16 882.5,-144.16 878,-149.16 878,-144.16 878,-144.16 878,-144.16 878,-149.16 873.5,-144.16 878,-154.16 878,-154.16"/>
</g>
<!-- ApplicationRecord -->
<g id="node11" class="node"><title>ApplicationRecord</title>
<ellipse fill="none" stroke="black" cx="2064" cy="-609.5" rx="77.1866" ry="18"/>
<text text-anchor="middle" x="2064" y="-605.8" font-family="Times,serif" font-size="14.00">ApplicationRecord</text>
</g>
<!-- Bookmark -->
<g id="node12" class="node"><title>Bookmark</title>
<path fill="none" stroke="black" d="M2171,-534C2171,-534 2391,-534 2391,-534 2397,-534 2403,-540 2403,-546 2403,-546 2403,-673 2403,-673 2403,-679 2397,-685 2391,-685 2391,-685 2171,-685 2171,-685 2165,-685 2159,-679 2159,-673 2159,-673 2159,-546 2159,-546 2159,-540 2165,-534 2171,-534"/>
<text text-anchor="middle" x="2281" y="-669.8" font-family="Times,serif" font-size="14.00">Bookmark</text>
<polyline fill="none" stroke="black" points="2159,-662 2403,-662 "/>
<text text-anchor="start" x="2167" y="-646.8" font-family="Times,serif" font-size="14.00">id :integer</text>
<text text-anchor="start" x="2167" y="-631.8" font-family="Times,serif" font-size="14.00">title :text</text>
<text text-anchor="start" x="2167" y="-616.8" font-family="Times,serif" font-size="14.00">content :text</text>
<text text-anchor="start" x="2167" y="-601.8" font-family="Times,serif" font-size="14.00">image :text</text>
<text text-anchor="start" x="2167" y="-586.8" font-family="Times,serif" font-size="14.00">home :boolean</text>
<text text-anchor="start" x="2167" y="-571.8" font-family="Times,serif" font-size="14.00">navbar :boolean</text>
<text text-anchor="start" x="2167" y="-556.8" font-family="Times,serif" font-size="14.00">created_at :timestamp without time zone</text>
<text text-anchor="start" x="2167" y="-541.8" font-family="Times,serif" font-size="14.00">updated_at :timestamp without time zone</text>
</g>
</g>
</svg>
